# Blender 3.6.5
# www.blender.org
mtllib caja5_obj.mtl
o Pickup4.001
v -6.081322 1.339481 -31.216633
v -6.081322 0.917646 -31.216633
v -6.081322 1.339481 -30.769882
v -6.081322 0.917646 -30.769882
v -6.557683 1.339481 -31.216633
v -6.557683 0.917646 -31.216633
v -6.557683 1.339481 -30.769882
v -6.557683 0.917646 -30.769882
vn 1.0000 -0.0000 -0.0000
vn -0.0000 -0.0000 1.0000
vn -1.0000 -0.0000 -0.0000
vn -0.0000 -0.0000 -1.0000
vn -0.0000 1.0000 -0.0000
vn -0.0000 -1.0000 -0.0000
vt -0.993548 -0.997533
vt 0.001603 -0.002383
vt -0.993548 -0.002383
vt 0.001603 0.992768
vt -0.993548 0.992768
vt 0.010129 -1.005916
vt 0.988227 0.005999
vt -0.006780 -0.010909
vt 0.012901 -0.013431
vt 0.985454 1.003815
vt -0.009445 0.981469
vt 0.006603 0.997819
vt -0.998548 1.982867
vt -0.988497 0.987767
vt 0.001603 1.987918
vt 0.996753 0.992768
vt 0.996753 1.987918
vt 0.001603 -0.997533
vt 1.005136 -0.989007
vt 1.007801 0.008916
vt -0.003449 1.992918
s 0
usemtl Material.035
f 2/1/1 1/3/1 3/2/1
f 4/3/2 3/5/2 7/4/2
f 8/6/3 7/8/3 5/7/3
f 6/9/4 5/11/4 1/10/4
f 7/12/5 3/14/5 1/13/5
f 4/15/6 8/17/6 6/16/6
f 2/1/1 3/2/1 4/18/1
f 4/3/2 7/4/2 8/2/2
f 8/6/3 5/7/3 6/19/3
f 6/9/4 1/10/4 2/20/4
f 7/12/5 1/13/5 5/21/5
f 4/15/6 6/16/6 2/4/6
