# Blender 3.6.5
# www.blender.org
mtllib lava_obj.mtl
o Plane.006
v -4.374252 0.100000 -23.931400
v 3.886413 0.100000 -23.931400
v -4.374252 0.100000 -32.338955
v 3.886413 0.100000 -32.338955
v -4.374252 0.100000 -32.338955
v 3.886413 0.100000 -32.338955
v -4.374252 0.100000 -23.931400
v 3.886413 0.100000 -23.931400
vn -0.0000 -1.0000 -0.0000
vn -0.0000 1.0000 -0.0000
vn -0.0000 -0.0000 -0.0000
vt 0.000000 1.000000
vt 1.000000 0.000000
vt 0.000000 0.000000
vt 0.000000 1.000000
vt 1.000000 0.000000
vt 1.000000 1.000000
vt 1.000000 1.000000
vt -0.000000 0.000000
s 0
usemtl Material.019
f 3/1/1 2/2/1 1/3/1
f 8/4/2 5/5/2 7/6/2
f 4/7/3 8/2/3 2/2/3
f 2/2/3 7/3/3 1/3/3
f 1/3/3 5/1/3 3/1/3
f 3/1/3 6/7/3 4/7/3
f 3/1/1 4/7/1 2/2/1
f 8/4/2 6/8/2 5/5/2
f 4/7/3 6/7/3 8/2/3
f 2/2/3 8/2/3 7/3/3
f 1/3/3 7/3/3 5/1/3
f 3/1/3 5/1/3 6/7/3
