# Blender 3.6.5
# www.blender.org
mtllib puerta3_obj.mtl
o puerta.002
v 1.294649 -0.250000 -39.712933
v 1.294649 1.250000 -39.712933
v 1.291584 -0.250000 -39.512955
v 1.291584 1.250000 -39.512955
v -0.430931 -0.250000 -39.739380
v -0.430931 1.250000 -39.739380
v -0.433995 -0.250000 -39.539402
v -0.433995 1.250000 -39.539402
vn 0.9999 -0.0000 0.0153
vn -0.0153 -0.0000 0.9999
vn -0.9999 -0.0000 -0.0153
vn 0.0153 -0.0000 -0.9999
vn -0.0000 -1.0000 -0.0000
vn -0.0000 1.0000 -0.0000
vt 0.000000 1.000000
vt 1.000000 0.000000
vt 0.000000 0.000000
vt 1.000000 1.000000
s 0
usemtl Material.025
f 2/1/1 3/2/1 1/3/1
f 4/1/2 7/2/2 3/3/2
f 8/4/3 5/3/3 7/2/3
f 6/4/4 1/3/4 5/2/4
f 7/4/5 1/3/5 3/1/5
f 4/1/6 6/2/6 8/4/6
f 2/1/1 4/4/1 3/2/1
f 4/1/2 8/4/2 7/2/2
f 8/4/3 6/1/3 5/3/3
f 6/4/4 2/1/4 1/3/4
f 7/4/5 5/2/5 1/3/5
f 4/1/6 2/3/6 6/2/6
