# Blender 3.6.5
# www.blender.org
mtllib puerta1_obj.mtl
o puerta
v -0.949963 1.362891 -4.552613
v 0.782236 1.362891 -4.552613
v -0.949963 1.362891 -4.752613
v 0.782236 1.362891 -4.752613
v -0.949963 -0.362891 -4.552613
v 0.782236 -0.362891 -4.552613
v -0.949963 -0.362891 -4.752613
v 0.782236 -0.362891 -4.752613
vn -0.0000 1.0000 -0.0000
vn -0.0000 -0.0000 -1.0000
vn -0.0000 -1.0000 -0.0000
vn -0.0000 -0.0000 1.0000
vn -1.0000 -0.0000 -0.0000
vn 1.0000 -0.0000 -0.0000
vt 0.000000 1.000000
vt 1.000000 0.000000
vt 0.000000 0.000000
vt 1.000000 1.000000
s 0
usemtl Material.023
f 2/1/1 3/2/1 1/3/1
f 4/1/2 7/2/2 3/3/2
f 8/4/3 5/3/3 7/2/3
f 6/4/4 1/3/4 5/2/4
f 7/4/5 1/3/5 3/1/5
f 4/1/6 6/2/6 8/4/6
f 2/1/1 4/4/1 3/2/1
f 4/1/2 8/4/2 7/2/2
f 8/4/3 6/1/3 5/3/3
f 6/4/4 2/1/4 1/3/4
f 7/4/5 5/2/5 1/3/5
f 4/1/6 2/3/6 6/2/6
