# Blender 3.6.5
# www.blender.org
mtllib puerta5_obj.mtl
o puerta.004
v 9.800710 -0.250000 -20.244030
v 9.800710 1.250000 -20.244030
v 10.000702 -0.250000 -20.245762
v 10.000702 1.250000 -20.245762
v 9.815655 -0.250000 -18.518314
v 9.815655 1.250000 -18.518314
v 10.015647 -0.250000 -18.520046
v 10.015647 1.250000 -18.520046
vn -0.0087 -0.0000 -1.0000
vn 1.0000 -0.0000 -0.0087
vn 0.0087 -0.0000 1.0000
vn -1.0000 -0.0000 0.0087
vn -0.0000 -1.0000 -0.0000
vn -0.0000 1.0000 -0.0000
vt 0.000000 1.000000
vt 1.000000 0.000000
vt 0.000000 0.000000
vt 1.000000 1.000000
s 0
usemtl Material.047
f 2/1/1 3/2/1 1/3/1
f 4/1/2 7/2/2 3/3/2
f 8/4/3 5/3/3 7/2/3
f 6/4/4 1/3/4 5/2/4
f 7/4/5 1/3/5 3/1/5
f 4/1/6 6/2/6 8/4/6
f 2/1/1 4/4/1 3/2/1
f 4/1/2 8/4/2 7/2/2
f 8/4/3 6/1/3 5/3/3
f 6/4/4 2/1/4 1/3/4
f 7/4/5 5/2/5 1/3/5
f 4/1/6 2/3/6 6/2/6
