# Blender 3.6.5
# www.blender.org
mtllib sala6.mtl
o Plane.007
v 13.899233 0.000000 -16.414278
v 10.078547 0.000000 -20.719320
v 10.078547 0.000000 -17.738409
v 14.018350 0.000000 -22.376955
v 12.313555 0.000000 -17.759878
v 16.059586 0.000000 -17.826721
v 16.089155 0.000000 -20.778751
v 12.218144 0.000000 -20.817955
v 10.078547 2.000000 -20.719320
v 10.078547 2.000000 -17.738409
v 12.313555 2.000000 -17.759878
v 13.899233 2.000000 -16.414278
v 16.059586 2.000000 -17.826721
v 16.089155 2.000000 -20.778751
v 14.018350 2.000000 -22.376955
v 12.218144 2.000000 -20.817955
v 10.078547 0.000000 -18.471437
v 10.078547 0.000000 -20.197285
v 10.078547 1.250000 -18.471437
v 10.078547 1.250000 -20.197285
vn 0.6546 -0.0000 0.7559
vn -0.9999 -0.0000 -0.0100
vn 0.6470 -0.0000 -0.7625
vn 0.0461 -0.0000 0.9989
vn -0.6110 -0.0000 0.7916
vn -0.5472 -0.0000 -0.8370
vn -0.0096 -0.0000 -1.0000
vn 1.0000 -0.0000 -0.0000
vt 5.365481 1.997425
vt 2.821225 -0.997425
vt 5.365481 -0.997425
vt -2.060403 1.997425
vt 2.757246 -0.997425
vt -2.060403 -0.997425
vt -2.169489 1.997425
vt -4.365481 -0.997425
vt -2.169489 -0.997425
vt -0.464781 1.997425
vt -2.849242 -0.997425
vt -0.464781 -0.997425
vt 2.757246 1.997425
vt 1.408697 1.997425
vt 3.816289 -0.997425
vt 1.408697 -0.997425
vt -2.849242 1.997425
vt -0.358453 -0.997425
vt -1.008241 0.874356
vt 1.808305 0.874356
vt 2.660256 1.997425
vt 2.821225 1.997425
vt -4.365481 1.997425
vt 3.816289 1.997425
vt -0.358453 1.997425
vt -2.204527 -0.997425
vt -1.008241 -0.997425
vt 1.808305 -0.997425
vt 2.660256 -0.997425
vt -2.204527 1.997425
s 0
usemtl Material.048
f 15/1/1 8/2/1 4/3/1
f 13/4/2 7/5/2 6/6/2
f 11/7/3 1/8/3 5/9/3
f 16/10/4 2/11/4 8/12/4
f 14/13/5 4/3/5 7/5/5
f 12/14/6 6/15/6 1/16/6
f 10/17/7 5/18/7 3/11/7
f 19/19/8 20/20/8 9/21/8
f 15/1/1 16/22/1 8/2/1
f 13/4/2 14/13/2 7/5/2
f 11/7/3 12/23/3 1/8/3
f 16/10/4 9/17/4 2/11/4
f 14/13/5 15/1/5 4/3/5
f 12/14/6 13/24/6 6/15/6
f 10/17/7 11/25/7 5/18/7
f 3/26/8 17/27/8 19/19/8
f 20/20/8 18/28/8 2/29/8
f 10/30/8 3/26/8 19/19/8
f 20/20/8 2/29/8 9/21/8
f 10/30/8 19/19/8 9/21/8
