# Blender 3.6.5
# www.blender.org
mtllib sala4.mtl
o Sala4
v 2.029405 2.000000 -49.632679
v -1.372676 2.000000 -49.712730
v 1.986830 2.000000 -55.868057
v 4.072186 2.000000 -52.699368
v -1.372676 0.000000 -49.712730
v 2.029405 0.000000 -49.632679
v 4.072186 0.000000 -52.699368
v 1.986830 0.000000 -55.868057
v -1.331285 0.000000 -55.927753
v -3.510839 0.000000 -52.938831
v -1.331285 2.000000 -55.927753
v -3.510839 2.000000 -52.938831
v 4.252374 1.997306 -45.981541
v 1.199297 1.997306 -42.946384
v 2.798268 1.997306 -39.649860
v -3.104615 1.997306 -39.710392
v -3.105003 0.000000 -39.711220
v 2.797880 0.000000 -39.650688
v 1.198909 0.000000 -42.947212
v 4.251985 0.000000 -45.982372
v 4.228638 0.002694 -49.384041
v -3.662558 0.002694 -49.732712
v -3.716134 0.002694 -46.238792
v -0.615140 0.000000 -43.116104
v 4.229027 2.000000 -49.383213
v -3.662169 2.000000 -49.731884
v -3.715745 2.000000 -46.237965
v -0.614751 1.997306 -43.115273
v 1.346322 0.000000 -39.665573
v -0.379459 0.000000 -39.683273
v -0.379459 1.250000 -39.682755
v 1.346322 1.250000 -39.665058
v 1.346323 1.250000 -49.648754
v 1.346323 0.000000 -49.648754
v -0.379459 0.000000 -49.689362
v -0.379459 1.250000 -49.689362
v 1.346323 0.002694 -49.511395
v -0.379459 0.002694 -49.587646
v 1.346323 1.250000 -49.510887
v -0.379459 1.250000 -49.587143
vn 0.0235 -0.0000 -0.9997
vn -0.8353 -0.0000 0.5497
vn 0.8335 -0.0000 -0.5524
vn -0.0180 -0.0000 0.9998
vn -0.8323 -0.0000 -0.5544
vn 0.8080 -0.0000 0.5892
vn -0.0441 -0.0004 0.9990
vn 0.7096 0.0002 -0.7046
vn -0.7050 0.0004 -0.7092
vn 0.0103 0.0004 -0.9999
vn 0.8072 -0.0004 0.5903
vn 0.9999 -0.0002 0.0153
vn -1.0000 0.0002 0.0069
vn -0.8997 -0.0000 0.4364
vt 0.257262 0.372693
vt 0.085775 0.372693
vt 0.017899 -0.000725
vt -0.609900 0.995055
vt -0.295036 -0.000725
vt -0.295036 0.995055
vt 0.001738 0.995055
vt -0.318831 -0.000725
vt -0.318831 0.995055
vt 0.351842 0.995055
vt 0.022130 -0.000725
vt 0.022130 0.995055
vt 0.009693 -0.000725
vt 0.009693 0.995055
vt -0.615831 -0.000725
vt -0.615831 0.995055
vt 0.583456 -0.000725
vt -0.200671 -0.000725
vt 0.257262 0.372693
vt 0.346934 0.993714
vt 0.657310 0.000617
vt 0.347017 -0.000725
vt 0.100424 0.995055
vt -0.202991 0.000617
vt 0.100385 0.000617
vt 0.257262 0.372693
vt 0.085775 0.372693
vt -0.058501 0.000617
vt 0.995561 0.995055
vt 0.657227 0.995055
vt -0.000165 -0.000725
vt -0.000247 0.993714
vt 0.034399 0.993714
vt 0.372497 0.000617
vt 0.372414 0.995055
vt 1.001576 0.995055
vt 0.674092 0.000617
vt 1.001659 0.000617
vt 0.085775 0.995055
vt 0.017899 0.995055
vt 0.355955 -0.000725
vt 0.355955 0.995055
vt 0.257262 0.995055
vt -0.609900 -0.000725
vt 0.001738 -0.000725
vt 0.351842 -0.000725
vt 0.257262 0.993714
vt 0.583494 0.993714
vt -0.200632 0.993714
vt 0.085775 0.372693
vt 0.085775 0.993714
vt -0.202952 0.995055
vt 0.085775 0.995055
vt -0.058462 0.995055
vt 0.528053 0.000617
vt 0.528092 0.995055
vt 0.257262 0.995055
vt 0.995644 0.000617
vt 0.034482 -0.000725
vt 0.674010 0.995055
s 0
usemtl mapaFinal.002
f 36/1/1 1/3/1 33/2/1
f 8/4/2 7/6/2 4/5/2
f 5/7/3 10/9/3 12/8/3
f 9/10/4 8/12/4 3/11/4
f 7/6/5 6/14/5 1/13/5
f 10/9/6 9/16/6 11/15/6
f 26/17/7 40/19/7 25/18/7
f 23/20/8 27/22/8 28/21/8
f 19/23/9 14/25/9 13/24/9
f 31/26/10 15/28/10 32/27/10
f 17/29/11 24/30/11 28/21/11
f 23/20/12 22/32/12 26/31/12
f 21/33/13 20/35/13 13/34/13
f 18/36/14 15/38/14 14/37/14
f 33/2/1 6/40/1 34/39/1
f 2/41/1 36/1/1 5/42/1
f 5/42/1 36/1/1 35/43/1
f 33/2/1 1/3/1 6/40/1
f 2/41/1 1/3/1 36/1/1
f 8/4/2 4/5/2 3/44/2
f 5/7/3 12/8/3 2/45/3
f 9/10/4 3/11/4 11/46/4
f 7/6/5 1/13/5 4/5/5
f 10/9/6 11/15/6 12/8/6
f 38/47/7 40/19/7 22/48/7
f 22/48/7 40/19/7 26/17/7
f 25/18/7 39/50/7 21/49/7
f 21/49/7 39/50/7 37/51/7
f 25/18/7 40/19/7 39/50/7
f 23/20/8 28/21/8 24/30/8
f 19/23/9 13/24/9 20/52/9
f 32/27/10 18/54/10 29/53/10
f 16/55/10 31/26/10 17/56/10
f 17/56/10 31/26/10 30/57/10
f 32/27/10 15/28/10 18/54/10
f 16/55/10 15/28/10 31/26/10
f 17/29/11 28/21/11 16/58/11
f 23/20/12 26/31/12 27/22/12
f 21/33/13 13/34/13 25/59/13
f 18/36/14 14/37/14 19/60/14
