# Blender 3.6.5
# www.blender.org
mtllib sala2.mtl
o Sala2
v -5.495440 0.000000 -4.722549
v 5.424311 0.000000 -4.654442
v 5.430299 0.000000 -14.117386
v 9.913040 0.000000 -14.189272
v 9.941236 0.000000 -39.495728
v -9.632738 0.000000 -39.793079
v 1.060846 1.063547 -38.980370
v -9.418228 0.000000 -14.387672
v -5.073512 0.000000 -14.249655
v -5.495440 2.000000 -4.722549
v 5.424311 2.000000 -4.654442
v 5.430299 2.000000 -14.117386
v 9.913040 2.000000 -14.189272
v 9.941236 2.000000 -39.495728
v -9.632738 2.000000 -39.793079
v -9.418228 2.000000 -14.387672
v -5.073512 2.000000 -14.249655
v 1.028274 1.063547 -38.980370
v -0.379459 0.000000 -39.652512
v 1.346323 0.000000 -39.626297
v -0.379459 1.250000 -39.652512
v 1.346323 1.250000 -39.626297
v 1.060846 1.063547 -39.035744
v 1.028274 1.063547 -39.035744
v -9.518824 0.000000 -26.301615
v -9.531488 0.000000 -27.801613
v -9.518824 1.250000 -26.301615
v -9.531488 1.250000 -27.801613
v 0.779028 0.000000 -4.683414
v -0.946754 0.000000 -4.694180
v -0.946754 1.250000 -4.694178
v 0.779028 1.250000 -4.683414
v 9.926336 0.000000 -26.123550
v 9.928261 0.920422 -27.849415
v 9.928261 0.000000 -27.849415
v 9.926336 1.056819 -26.123550
v 9.926336 1.250000 -26.123550
v 9.928261 1.250000 -27.849415
v 9.917864 0.000000 -18.519197
v 9.917864 1.250000 -18.519197
v 9.919786 0.000000 -20.245060
v 9.919786 1.250000 -20.245060
vn 0.0318 -0.0000 -0.9995
vn -0.0152 -0.0000 0.9999
vn -0.0160 -0.0000 -0.9999
vn 0.0062 -0.0000 -1.0000
vn 0.9990 -0.0000 0.0442
vn 1.0000 -0.0000 -0.0084
vn -1.0000 -0.0000 -0.0011
vn -1.0000 -0.0000 -0.0006
vn -0.0000 1.0000 -0.0000
vt -0.878974 -0.291479
vt -2.890755 -0.291479
vt -2.890755 1.282531
vt 1.294565 0.692277
vt 6.073471 1.282531
vt -2.990083 1.282531
vt 6.036076 -0.285612
vt 3.975859 -0.285612
vt 3.975859 1.276664
vt 3.981948 1.282531
vt 1.830992 0.692277
vt -1.074344 1.282531
vt -3.552323 -0.291479
vt -0.779302 -0.291479
vt -0.779302 1.282531
vt 3.165222 0.692277
vt -0.739130 1.282531
vt 2.728620 0.692277
vt -0.796877 1.282531
vt 0.965761 0.692277
vt 0.463420 0.692277
vt 3.179135 0.432898
vt 6.568988 -0.291479
vt 3.179135 -0.291479
vt -0.817801 -0.291479
vt -3.572147 -0.291479
vt -3.572147 1.282531
vt 0.239318 0.734363
vt 0.229656 0.734363
vt 0.229656 0.717937
vt -0.878974 1.282531
vt -2.990083 -0.291479
vt 1.294565 -0.291479
vt 2.093673 0.692277
vt 6.073471 -0.291479
vt 2.093673 -0.291479
vt 6.036076 1.276664
vt 1.830992 -0.291479
vt 3.981948 -0.291479
vt 1.031884 0.692277
vt -1.074344 -0.291479
vt 1.031884 -0.291479
vt -3.552323 1.282531
vt -0.739130 -0.291479
vt 2.728622 -0.291479
vt 6.655535 1.282531
vt 6.655535 -0.291479
vt 3.165221 -0.291479
vt 6.568988 1.282531
vt 2.676794 0.692277
vt -0.817801 1.282531
vt 0.239318 0.717937
vt 0.463420 -0.291479
vt -0.796877 -0.291479
vt 2.676794 0.540243
vt 2.676794 -0.291479
vt 0.965761 -0.291479
vt 3.179134 0.692277
s 0
usemtl Material.006
f 9/1/1 8/2/1 16/3/1
f 21/4/2 14/5/2 15/6/2
f 4/7/3 3/8/3 12/9/3
f 11/10/4 32/11/4 10/12/4
f 1/13/5 9/14/5 17/15/5
f 28/16/6 16/17/6 27/18/6
f 13/19/7 42/20/7 40/21/7
f 34/22/7 5/23/7 35/24/7
f 3/25/8 2/26/8 11/27/8
f 9/1/1 16/3/1 17/31/1
f 21/4/2 6/32/2 19/33/2
f 14/5/2 22/34/2 5/35/2
f 5/35/2 22/34/2 20/36/2
f 21/4/2 15/6/2 6/32/2
f 14/5/2 21/4/2 22/34/2
f 4/7/3 12/9/3 13/37/3
f 29/38/4 32/11/4 2/39/4
f 2/39/4 32/11/4 11/10/4
f 10/12/4 31/40/4 1/41/4
f 1/41/4 31/40/4 30/42/4
f 10/12/4 32/11/4 31/40/4
f 1/13/5 17/15/5 10/43/5
f 27/18/6 8/44/6 25/45/6
f 15/46/6 28/16/6 6/47/6
f 6/47/6 28/16/6 26/48/6
f 27/18/6 16/17/6 8/44/6
f 15/46/6 16/17/6 28/16/6
f 13/19/7 14/49/7 37/50/7
f 3/25/8 11/27/8 12/51/8
f 40/21/7 39/53/7 4/54/7
f 36/55/7 33/56/7 41/57/7
f 36/55/7 41/57/7 42/20/7
f 40/21/7 4/54/7 13/19/7
f 13/19/7 36/55/7 42/20/7
f 14/49/7 5/23/7 34/22/7
f 14/49/7 34/22/7 38/58/7
f 37/50/7 36/55/7 13/19/7
f 14/49/7 38/58/7 37/50/7
usemtl 
f 18/28/9 7/29/9 23/30/9
f 18/28/9 23/30/9 24/52/9
