# Blender 3.6.5
# www.blender.org
mtllib suelo2_obj.mtl
o Plane.003
v -10.124665 0.091878 -4.782007
v 22.886211 0.091878 -4.424416
v -9.744807 0.091878 -39.848328
v 23.263393 0.100000 -39.491936
v -4.374251 0.091878 -23.931402
v -4.374251 0.091878 -32.338955
v -2.827488 0.091878 -32.338955
v 3.886413 0.091878 -25.050409
v 3.886413 0.091878 -23.931402
v 3.886413 0.093547 -32.338955
vn -0.0000 1.0000 -0.0000
vn -0.0002 1.0000 0.0002
vt -8.352856 9.215054
vt -8.352856 -8.352856
vt -5.403310 1.270895
vt -1.055789 5.527214
vt -1.014070 1.876268
vt 9.215054 9.215054
vt 9.215054 -8.352856
vt -1.007620 1.315721
vt -5.451773 5.482509
vt -4.628705 5.490902
s 0
usemtl Material.029
f 3/1/1 1/2/1 5/3/1
f 10/4/2 8/5/2 4/6/2
f 2/7/1 8/5/1 9/8/1
f 2/7/1 9/8/1 1/2/1
f 9/8/1 5/3/1 1/2/1
f 6/9/1 7/10/1 3/1/1
f 5/3/1 6/9/1 3/1/1
f 8/5/2 2/7/2 4/6/2
f 4/6/2 3/1/2 10/4/2
f 3/1/2 7/10/2 10/4/2
